<?xml version="1.0" encoding="utf-8"?>
<!-- Generator: Adobe Illustrator 24.2.1, SVG Export Plug-In . SVG Version: 6.00 Build 0)  -->
<svg version="1.1" id="Layer_1" xmlns="http://www.w3.org/2000/svg" xmlns:xlink="http://www.w3.org/1999/xlink" x="0px" y="0px"
	 viewBox="0 0 1921 841.89" style="enable-background:new 0 0 1921 841.89;" xml:space="preserve">
<style type="text/css">
	.st0{fill:#952228;}
	.st1{fill:#FFFFFF;stroke:#EEEB6D;stroke-width:2;stroke-miterlimit:10;}
	.st2{fill:#EEEB6D;stroke:#231F20;stroke-width:5;stroke-miterlimit:10;}
	.st3{fill:none;stroke:#790410;stroke-width:2;stroke-miterlimit:10;}
	.st4{fill:#231F20;}
</style>
<rect y="0" transform="matrix(-1 -1.224647e-16 1.224647e-16 -1 1921 841.8898)" class="st0" width="1921" height="841.89"/>
<g>
	<path class="st1" d="M392.51,139.29v589.32h718.39l30.64,28.58h278.8c3.01,0.15,7.23,0.26,12.24,0.09
		c6.14-0.21,28.31-1.15,49.04-10.25c28.64-12.57,40.84-34.72,44.38-41.87c2.44-206.6,0.04-413.2,2.49-619.8H1251.6l-41.62,31.98
		h-493.8l-47.72-32.83l-148.78,0.85h-20.55h-21.76h-29.65c-6.94-0.06-6.91-0.11-7.86,0c-11.55,1.35-19.08,8.81-24.49,14.34
		C404.79,110.5,394.93,130.59,392.51,139.29"/>
	<path class="st2" d="M1164.16,149.1H760.8c-15.94,0-28.87-12.93-28.87-28.87v-6.66c0-15.94,12.93-28.87,28.87-28.87h403.35
		c15.94,0,28.87,12.93,28.87,28.87v6.66C1193.03,136.18,1180.1,149.1,1164.16,149.1"/>
	<line class="st3" x1="1489.13" y1="100.58" x2="1489.13" y2="141.58"/>
	<line class="st3" x1="1469.21" y1="119.68" x2="1508.65" y2="119.68"/>
	<line class="st3" x1="436.07" y1="668.02" x2="436.07" y2="709.02"/>
	<line class="st3" x1="416.16" y1="687.11" x2="455.6" y2="687.11"/>
	<g>
		<path class="st4" d="M833.91,106.65l-3.38,19.14c-0.32,1.81-2.05,3.28-3.86,3.28h-21.83c-1.81,0-3.02-1.47-2.7-3.28l3.38-19.14
			c0.32-1.81,2.05-3.28,3.86-3.28h21.83C833.02,103.36,834.23,104.83,833.91,106.65z M823.71,111.13h-9.58
			c-0.91,0-1.77,0.73-1.93,1.64l-1.22,6.89c-0.16,0.91,0.45,1.64,1.35,1.64h9.58c0.91,0,1.77-0.74,1.93-1.64l1.22-6.89
			C825.22,111.86,824.62,111.13,823.71,111.13z"/>
		<path class="st4" d="M865.32,105l-3.67,20.79c-0.32,1.81-2.05,3.28-3.86,3.28h-21.83c-1.81,0-3.02-1.47-2.7-3.28l3.66-20.79
			c0.16-0.91,1.02-1.64,1.93-1.64h4.48c0.91,0,1.51,0.73,1.35,1.64l-2.58,14.66c-0.16,0.91,0.45,1.64,1.35,1.64h9.58
			c0.91,0,1.77-0.74,1.93-1.64l2.58-14.66c0.16-0.91,1.02-1.64,1.93-1.64h4.48C864.88,103.36,865.48,104.1,865.32,105z"/>
		<path class="st4" d="M896.26,106.65l-1.79,10.17c-0.32,1.81-2.05,3.28-3.86,3.28h-4.54v7.04c0,1.01-0.94,1.93-1.96,1.93h-4.66
			c-0.8,0-1.38-0.57-1.38-1.36v-6.26c0-0.78-0.58-1.36-1.38-1.36h-1.79c-0.91,0-1.77,0.74-1.93,1.64l-1,5.69
			c-0.16,0.91-1.02,1.64-1.93,1.64h-4.48c-0.91,0-1.51-0.74-1.35-1.64l3.95-22.43c0.16-0.91,1.02-1.64,1.93-1.64h23.47
			C895.37,103.36,896.58,104.83,896.26,106.65z M887.1,111.13h-11.66c-0.35,0-0.69,0.3-0.72,0.66c-0.03,0.31,0.21,0.54,0.53,0.54
			h11.61c0.31,0,0.64-0.23,0.72-0.54C887.68,111.43,887.45,111.13,887.1,111.13z"/>
		<path class="st4" d="M929.43,105l-2.66,15.1c-0.87,4.95-5.59,8.96-10.54,8.96h-9.04c-0.91,0-1.51-0.74-1.35-1.64l0.79-4.48
			c0.16-0.91,1.02-1.64,1.93-1.64h6.95c1.81,0,3.54-1.47,3.86-3.28l0.93-5.25c0.16-0.91-0.45-1.64-1.35-1.64h-0.82
			c-0.91,0-1.51-0.74-1.35-1.64l0.79-4.48c0.16-0.91,1.02-1.64,1.93-1.64h8.59C928.98,103.36,929.59,104.1,929.43,105z"/>
		<path class="st4" d="M960.04,106.65l-3.38,19.14c-0.32,1.81-2.05,3.28-3.86,3.28h-21.83c-1.81,0-3.02-1.47-2.7-3.28l3.38-19.14
			c0.32-1.81,2.05-3.28,3.86-3.28h21.83C959.15,103.36,960.36,104.83,960.04,106.65z M949.84,111.13h-9.58
			c-0.91,0-1.77,0.73-1.93,1.64l-1.22,6.89c-0.16,0.91,0.45,1.64,1.35,1.64h9.58c0.91,0,1.77-0.74,1.93-1.64l1.22-6.89
			C951.36,111.86,950.75,111.13,949.84,111.13z"/>
		<path class="st4" d="M991.45,105l-3.67,20.79c-0.32,1.81-2.05,3.28-3.86,3.28H962.1c-1.81,0-3.02-1.47-2.7-3.28l3.66-20.79
			c0.16-0.91,1.03-1.64,1.93-1.64h4.48c0.91,0,1.51,0.73,1.35,1.64l-2.58,14.66c-0.16,0.91,0.45,1.64,1.35,1.64h9.58
			c0.91,0,1.77-0.74,1.93-1.64l2.58-14.66c0.16-0.91,1.02-1.64,1.93-1.64h4.48C991.01,103.36,991.61,104.1,991.45,105z"/>
		<path class="st4" d="M1022.39,106.65l-1.79,10.17c-0.32,1.81-2.05,3.28-3.86,3.28h-4.54v7.04c0,1.01-0.94,1.93-1.96,1.93h-4.66
			c-0.8,0-1.38-0.57-1.38-1.36v-6.26c0-0.78-0.58-1.36-1.38-1.36h-1.79c-0.91,0-1.77,0.74-1.93,1.64l-1,5.69
			c-0.16,0.91-1.02,1.64-1.93,1.64h-4.48c-0.91,0-1.51-0.74-1.35-1.64l3.96-22.43c0.16-0.91,1.02-1.64,1.93-1.64h23.47
			C1021.5,103.36,1022.71,104.83,1022.39,106.65z M1013.23,111.13h-11.66c-0.35,0-0.69,0.3-0.72,0.66
			c-0.02,0.31,0.21,0.54,0.53,0.54h11.61c0.31,0,0.64-0.23,0.72-0.54C1013.81,111.43,1013.58,111.13,1013.23,111.13z"/>
		<path class="st4" d="M1049.45,105l-3.67,20.79c-0.32,1.81-2.05,3.28-3.86,3.28h-8.16c-1.62,0-2.79-1.19-2.75-2.79l0.37-14.55
			l-2.77,15.7c-0.16,0.91-1.02,1.64-1.93,1.64h-4.48c-0.91,0-1.51-0.74-1.35-1.64l3.67-20.79c0.32-1.81,2.05-3.28,3.86-3.28h8.16
			c1.62,0,2.79,1.19,2.75,2.79l-0.37,14.55l2.77-15.7c0.16-0.91,1.02-1.64,1.93-1.64h4.48C1049,103.36,1049.61,104.1,1049.45,105z"
			/>
		<path class="st4" d="M1080.59,105l-0.79,4.48c-0.16,0.91-1.03,1.64-1.93,1.64h-18.39c-0.33,0-0.65,0.27-0.71,0.6s0.16,0.6,0.5,0.6
			h18.38c0.91,0,1.51,0.73,1.35,1.64l-0.79,4.48c-0.16,0.91-1.03,1.64-1.93,1.64h-18.39c-0.33,0-0.65,0.27-0.71,0.6
			s0.16,0.6,0.5,0.6h18.38c0.91,0,1.51,0.73,1.35,1.64l-0.79,4.48c-0.16,0.91-1.03,1.64-1.93,1.64h-23.47
			c-1.81,0-3.02-1.47-2.7-3.28l3.38-19.14c0.32-1.81,2.05-3.28,3.86-3.28h23.47C1080.15,103.36,1080.75,104.1,1080.59,105z"/>
		<path class="st4" d="M1111.49,105l-3.67,20.79c-0.32,1.81-2.05,3.28-3.86,3.28h-23.47c-0.91,0-1.51-0.74-1.35-1.64l0.79-4.48
			c0.16-0.91,1.02-1.64,1.93-1.64h18.38c0.33,0,0.65-0.27,0.71-0.6c0.06-0.33-0.16-0.6-0.5-0.6h-11.84c-4.52,0-7.54-3.66-6.74-8.18
			l1.22-6.91c0.16-0.91,1.02-1.64,1.93-1.64h4.48c0.91,0,1.51,0.73,1.35,1.64l-1,5.69c-0.16,0.91,0.45,1.64,1.35,1.64h9.58
			c0.91,0,1.77-0.74,1.93-1.64l1-5.69c0.16-0.91,1.03-1.64,1.93-1.64h4.48C1111.05,103.36,1111.65,104.1,1111.49,105z"/>
	</g>
</g>
</svg>
