<svg id="Layer_1" data-name="Layer 1" xmlns="http://www.w3.org/2000/svg" viewBox="0 0 1465.02 952.63"><defs><style>.cls-1{fill:#231f20;}.cls-2{fill:none;}.cls-3{fill:#eeeb6d;}.cls-4{fill:#fff;}.cls-5{fill:#39ff00;}</style></defs><polygon class="cls-1" points="687.28 346.65 671.11 346.65 671.11 221.04 777.75 221.06 777.75 149.1 671.11 149.1 671.11 0 687.28 0 687.28 132.93 793.91 132.93 793.91 237.24 687.28 237.22 687.28 346.65"/><path class="cls-1" d="M1387.89,343.47H532.11c-168.24,0-304.62,132.65-304.62,296.27v16.62c0,163.63,136.39,296.27,304.62,296.27h855.78c168.24,0,304.62-132.65,304.62-296.27V639.74C1692.51,476.11,1556.12,343.47,1387.89,343.47Z" transform="translate(-227.49 0)"/><rect class="cls-2" x="288.79" y="878.65" width="853.79" height="62.52"/><polygon class="cls-3" points="146.19 524.99 146.13 584.12 176.29 607.81 208.65 584.12 208.65 524.57 146.19 524.99"/><polygon class="cls-3" points="63.64 667.51 122.68 667.88 146.48 639.1 122.99 607.95 63.53 607.64 63.64 667.51"/><polygon class="cls-3" points="207.62 750.18 208.18 691.71 178.34 668.03 145.91 691.18 145.41 750.07 207.62 750.18"/><polygon class="cls-3" points="289.43 608.5 230.68 608.2 207.02 636.85 230.43 667.79 289.61 668.03 289.43 608.5"/><ellipse class="cls-3" cx="1277.23" cy="563.15" rx="41.21" ry="40.91"/><ellipse class="cls-3" cx="1206.14" cy="633.83" rx="41.21" ry="40.91"/><ellipse class="cls-3" cx="1350.76" cy="632.96" rx="41.21" ry="40.91"/><ellipse class="cls-3" cx="1280.69" cy="707.25" rx="41.21" ry="40.91"/><rect class="cls-4" x="351.33" y="381.7" width="762.35" height="444.44"/><rect class="cls-5" x="381.62" y="403.59" width="701.77" height="400.65"/><path class="cls-4" d="M629.23,863.63,616,904.22H605.88L597,876.73l-9.21,27.49h-10l-13.33-40.59h9.74l9.15,28.53,9.57-28.53h8.69l9.27,28.76,9.45-28.76Z" transform="translate(-227.49 0)"/><path class="cls-4" d="M668.17,895.53H649.33l-3.59,8.69h-9.62l18.08-40.59h9.27l18.14,40.59h-9.85Zm-3-7.14-6.43-15.54-6.44,15.54Z" transform="translate(-227.49 0)"/><path class="cls-4" d="M700.56,871.28h-13v-7.65h35.36v7.65h-13v32.94h-9.38Z" transform="translate(-227.49 0)"/><path class="cls-4" d="M733.18,883.93c0-12.24,9.39-21,22-21,7,0,12.86,2.55,16.69,7.19l-6,5.57a13,13,0,0,0-10.2-4.76c-7.59,0-13,5.34-13,13s5.39,13,13,13a12.92,12.92,0,0,0,10.2-4.82l6,5.57c-3.83,4.7-9.68,7.25-16.75,7.25C742.57,904.92,733.18,896.16,733.18,883.93Z" transform="translate(-227.49 0)"/><path class="cls-4" d="M823.75,863.63v40.59h-9.39V887.58H795.93v16.64h-9.38V863.63h9.38v16h18.43v-16Z" transform="translate(-227.49 0)"/><path class="cls-4" d="M863.9,883.93c0-12.07,9.39-21,22.2-21s22.19,8.87,22.19,21-9.44,21-22.19,21S863.9,896,863.9,883.93Zm34.89,0c0-7.72-5.45-13-12.69-13s-12.69,5.28-12.69,13,5.44,13,12.69,13S898.79,891.64,898.79,883.93Z" transform="translate(-227.49 0)"/><path class="cls-4" d="M923.35,886.36V863.63h9.39V886c0,7.72,3.36,10.91,9,10.91s9-3.19,9-10.91V863.63h9.27v22.73c0,11.95-6.83,18.56-18.37,18.56S923.35,898.31,923.35,886.36Z" transform="translate(-227.49 0)"/><path class="cls-4" d="M1003.55,904.22l-7.82-11.3h-8.64v11.3h-9.38V863.63h17.56c10.83,0,17.61,5.62,17.61,14.73a13.19,13.19,0,0,1-8.34,12.81l9.1,13.05Zm-8.81-32.94h-7.65v14.15h7.65c5.74,0,8.64-2.66,8.64-7.07S1000.48,871.28,994.74,871.28Z" transform="translate(-227.49 0)"/><path class="cls-4" d="M1061.78,871.28h-13v-7.65h35.35v7.65h-13v32.94h-9.39Z" transform="translate(-227.49 0)"/><path class="cls-4" d="M1123.38,904.22l-7.82-11.3h-8.64v11.3h-9.38V863.63h17.55c10.84,0,17.62,5.62,17.62,14.73a13.19,13.19,0,0,1-8.34,12.81l9.1,13.05Zm-8.81-32.94h-7.65v14.15h7.65c5.74,0,8.64-2.66,8.64-7.07S1120.31,871.28,1114.57,871.28Z" transform="translate(-227.49 0)"/><path class="cls-4" d="M1175.18,895.53h-18.83l-3.59,8.69h-9.62l18.08-40.59h9.27l18.14,40.59h-9.85Zm-3-7.14-6.43-15.54-6.44,15.54Z" transform="translate(-227.49 0)"/><path class="cls-4" d="M1201.2,863.63h9.39v40.59h-9.39Z" transform="translate(-227.49 0)"/><path class="cls-4" d="M1228.55,863.63h9.39v32.94h20.34v7.65h-29.73Z" transform="translate(-227.49 0)"/><path class="cls-4" d="M1303.3,896.68v7.54h-31.41V863.63h30.66v7.54h-21.33V880h18.84v7.31h-18.84v9.39Z" transform="translate(-227.49 0)"/><path class="cls-4" d="M1345,904.22l-7.82-11.3h-8.64v11.3h-9.38V863.63h17.55c10.84,0,17.62,5.62,17.62,14.73a13.19,13.19,0,0,1-8.34,12.81l9.1,13.05Zm-8.81-32.94h-7.65v14.15h7.65c5.74,0,8.64-2.66,8.64-7.07S1341.89,871.28,1336.15,871.28Z" transform="translate(-227.49 0)"/></svg>