<svg id="Layer_1" data-name="Layer 1" xmlns="http://www.w3.org/2000/svg" viewBox="0 0 636.57 129.7"><defs><style>.cls-1{fill:#eeeb6d;}.cls-2{fill:#fff;stroke:#952228;stroke-miterlimit:10;stroke-width:2px;}</style></defs><path class="cls-1" d="M287.49,115.3a344.41,344.41,0,0,1-57.46,12,367.32,367.32,0,0,1-67.46,1.59c-31.56-2-73.12-4.65-115.95-26.89C18.55,87.41-1.69,68.77.11,56.4a21.14,21.14,0,0,1,6.78-13c2.82-2.2,5.87-2.94,12-4.41a80.85,80.85,0,0,1,16.58-2.15,87.6,87.6,0,0,1,15,.85c-36.12,1.71-40.73,10-41.63,13C4,66.69,55.66,92.12,61,94.7c30.32,14.7,58.31,19.75,81.76,22.61,33.37,4.08,83.2,6.85,144.77-2" transform="translate(0 0)"/><path class="cls-1" d="M283,109.8c-12.49,1.68-29.21,3.53-49,4.54-15.88.82-39.35,2-67.72-.42a319.13,319.13,0,0,1-40.51-6c-5.13-1.1-35.57-7.61-61.67-19.45-6-2.74-12.23-5.94-20.07-10-10-5.19-12.19-6.59-14.18-8.09C25.39,67,13.6,58.08,15.48,50.93c1.74-6.62,14.38-8.77,21.15-9.92,5.69-1,10.95-.9,17.13-.82,5.5.07,10.08.41,13.31.73-32.12,1-36.17,7.13-37,9.36C26.4,60.81,72.25,81.1,76.84,83.12c32.36,14.24,61,19.18,85.09,22.22A691.91,691.91,0,0,0,283,109.8" transform="translate(0 0)"/><path class="cls-1" d="M352,10.22A344,344,0,0,1,410,.89,366.81,366.81,0,0,1,477.43,2.4c31.42,3.46,72.82,8,114.58,32.2,27.37,15.85,46.73,35.4,44.36,47.68A21,21,0,0,1,629,95c-2.92,2.08-6,2.67-12.15,3.86a80.45,80.45,0,0,1-16.66,1.39,86.33,86.33,0,0,1-14.9-1.54c36.15,0,41.14-8.11,42.18-11.1C633,71.82,582.53,44,577.34,41.23,547.73,25.14,520,18.81,496.72,14.87,463.57,9.27,413.92,4.2,352,10.22" transform="translate(0 0)"/><path class="cls-2" d="M97.88,54.44l-5.29,30a3,3,0,0,1-2.79,2.36H83.34a1.93,1.93,0,0,1-2-2.36l3.87-22L78,84.77a3,3,0,0,1-2.7,2H68.13a1.91,1.91,0,0,1-2-2l.57-22.3-3.87,22a3,3,0,0,1-2.79,2.36H53.59a1.93,1.93,0,0,1-2-2.36l5.29-30a5.9,5.9,0,0,1,5.57-4.74H75.14a1.92,1.92,0,0,1,2,2.23L75.7,64.07l2.87-12.14a3,3,0,0,1,2.76-2.23H94A3.87,3.87,0,0,1,97.88,54.44Z" transform="translate(0 0)"/><path class="cls-2" d="M143.22,52.07l-1.14,6.47a3,3,0,0,1-2.78,2.36H112.78a1.08,1.08,0,0,0-1,.87.7.7,0,0,0,.71.87H139A1.93,1.93,0,0,1,140.94,65l-1.14,6.47A3,3,0,0,1,137,73.84H110.5a1.08,1.08,0,0,0-1,.87.7.7,0,0,0,.71.87h26.52A1.93,1.93,0,0,1,138.66,78l-1.14,6.47a3,3,0,0,1-2.79,2.36H100.88A3.86,3.86,0,0,1,97,82.05l4.87-27.61a5.89,5.89,0,0,1,5.57-4.74h33.85A1.93,1.93,0,0,1,143.22,52.07Z" transform="translate(0 0)"/><path class="cls-2" d="M188.1,52.07,187,58.54a3,3,0,0,1-2.79,2.36H157.66a1.08,1.08,0,0,0-1,.87.71.71,0,0,0,.72.87h26.51A1.93,1.93,0,0,1,185.82,65l-1.14,6.47a2.94,2.94,0,0,1-2.78,2.36H155.38a1.08,1.08,0,0,0-1,.87.71.71,0,0,0,.72.87h26.51A1.93,1.93,0,0,1,183.54,78l-1.14,6.47a3,3,0,0,1-2.78,2.36H145.77a3.86,3.86,0,0,1-3.9-4.73l4.86-27.61a5.9,5.9,0,0,1,5.57-4.74h33.86A1.93,1.93,0,0,1,188.1,52.07Z" transform="translate(0 0)"/><path class="cls-2" d="M230.31,52.07l-1.14,6.47a3,3,0,0,1-2.79,2.36H219.2a2.94,2.94,0,0,0-2.78,2.37l-3.73,21.15a3,3,0,0,1-2.79,2.36h-6.46a1.92,1.92,0,0,1-1.95-2.36l3.72-21.15a1.93,1.93,0,0,0-2-2.37H190.87a1.93,1.93,0,0,1-2-2.36l1.14-6.47a3,3,0,0,1,2.79-2.37h35.51A1.93,1.93,0,0,1,230.31,52.07Z" transform="translate(0 0)"/><path class="cls-2" d="M288.58,52.07l-1.14,6.47a3,3,0,0,1-2.78,2.36h-7.19a3,3,0,0,0-2.78,2.37L271,84.42a3,3,0,0,1-2.78,2.36h-6.47a1.93,1.93,0,0,1-1.95-2.36l3.73-21.15a1.94,1.94,0,0,0-1.95-2.37H249.15a1.93,1.93,0,0,1-2-2.36l1.14-6.47a2.94,2.94,0,0,1,2.78-2.37h35.51A1.93,1.93,0,0,1,288.58,52.07Z" transform="translate(0 0)"/><path class="cls-2" d="M331.66,52.07,326,84.42a3,3,0,0,1-2.79,2.36h-6.46a1.93,1.93,0,0,1-2-2.36l1.45-8.21a1.93,1.93,0,0,0-1.95-2.37H300.44a3,3,0,0,0-2.79,2.37l-1.44,8.21a3,3,0,0,1-2.79,2.36H287A1.93,1.93,0,0,1,285,84.42l5.71-32.35a2.94,2.94,0,0,1,2.78-2.37H300a1.93,1.93,0,0,1,2,2.37l-1.45,8.2a1.94,1.94,0,0,0,2,2.37h13.82A3,3,0,0,0,319,60.27l1.45-8.2a3,3,0,0,1,2.78-2.37h6.47A1.93,1.93,0,0,1,331.66,52.07Z" transform="translate(0 0)"/><path class="cls-2" d="M376.66,52.07l-1.14,6.47a3,3,0,0,1-2.79,2.36H346.22a1.08,1.08,0,0,0-1,.87.7.7,0,0,0,.71.87h26.52A1.94,1.94,0,0,1,374.38,65l-1.14,6.47a3,3,0,0,1-2.79,2.36H343.94a1.1,1.1,0,0,0-1,.87.71.71,0,0,0,.72.87h26.52a1.94,1.94,0,0,1,2,2.37L371,84.42a3,3,0,0,1-2.79,2.36H334.32a3.86,3.86,0,0,1-3.9-4.73l4.87-27.61a5.89,5.89,0,0,1,5.57-4.74h33.85A1.94,1.94,0,0,1,376.66,52.07Z" transform="translate(0 0)"/><path class="cls-2" d="M436.83,52.07l-1.14,6.47a3,3,0,0,1-2.79,2.36h-7.18a3,3,0,0,0-2.79,2.37l-3.72,21.15a3,3,0,0,1-2.79,2.36H410A1.93,1.93,0,0,1,408,84.42l3.73-21.15a1.93,1.93,0,0,0-2-2.37H397.39a1.93,1.93,0,0,1-1.95-2.36l1.14-6.47a3,3,0,0,1,2.79-2.37h35.51A1.94,1.94,0,0,1,436.83,52.07Z" transform="translate(0 0)"/><path class="cls-2" d="M479.82,52.07l-1.14,6.47a3,3,0,0,1-2.79,2.36H449.37a1.08,1.08,0,0,0-1,.87.71.71,0,0,0,.72.87h26.51A1.93,1.93,0,0,1,477.53,65l-1.14,6.47a2.94,2.94,0,0,1-2.78,2.36H447.09a1.08,1.08,0,0,0-1,.87.71.71,0,0,0,.72.87H473.3A1.93,1.93,0,0,1,475.25,78l-1.14,6.47a3,3,0,0,1-2.78,2.36H437.48a3.86,3.86,0,0,1-3.9-4.73l4.86-27.61A5.91,5.91,0,0,1,444,49.7h33.86A1.94,1.94,0,0,1,479.82,52.07Z" transform="translate(0 0)"/><path class="cls-2" d="M524.3,54.44l-5.28,30a3,3,0,0,1-2.79,2.36h-6.46a1.93,1.93,0,0,1-1.95-2.36l1.44-8.21a1.93,1.93,0,0,0-1.95-2.37H493.5a3,3,0,0,0-2.79,2.37l-1.44,8.21a3,3,0,0,1-2.79,2.36H480a1.93,1.93,0,0,1-2-2.36l5.29-30a5.9,5.9,0,0,1,5.57-4.74H520.4A3.86,3.86,0,0,1,524.3,54.44ZM511.09,60.9H494.28a1.08,1.08,0,0,0-1,.87.71.71,0,0,0,.71.87h16.82a1.08,1.08,0,0,0,1-.87A.71.71,0,0,0,511.09,60.9Z" transform="translate(0 0)"/><path class="cls-2" d="M569.26,54.44l-5.29,30a3,3,0,0,1-2.78,2.36h-6.47a1.93,1.93,0,0,1-2-2.36l3.87-22-7.3,22.3a3,3,0,0,1-2.7,2h-7.13a1.9,1.9,0,0,1-2-2l.56-22.3-3.87,22a3,3,0,0,1-2.79,2.36H525a1.93,1.93,0,0,1-2-2.36l5.28-30a5.9,5.9,0,0,1,5.57-4.74h12.65a1.93,1.93,0,0,1,2,2.23l-1.42,12.14L550,51.93a3,3,0,0,1,2.76-2.23h12.65A3.87,3.87,0,0,1,569.26,54.44Z" transform="translate(0 0)"/><path class="cls-1" d="M352.61,19.28c12.52-1.46,29.28-3,49.1-3.66,15.89-.53,39.38-1.3,67.7,1.65A321.38,321.38,0,0,1,509.81,24c5.1,1.2,35.42,8.25,61.3,20.57,6,2.84,12.12,6.16,19.89,10.35,10,5.38,12.06,6.81,14,8.35,4.42,3.46,16,12.54,14,19.66-1.85,6.59-14.53,8.51-21.32,9.54-5.71.86-11,.7-17.14.51-5.5-.17-10.07-.6-13.3-1,32.14-.45,36.3-6.47,37.13-8.7,3.9-10.46-41.58-31.57-46.13-33.67-32.1-14.82-60.7-20.29-84.67-23.75a691.08,691.08,0,0,0-121-6.65" transform="translate(0 0)"/></svg>